<svg xmlns="http://www.w3.org/2000/svg" width="825.5" height="88" viewBox="0 0 825.5 88">
  <metadata><?xpacket begin="﻿" id="W5M0MpCehiHzreSzNTczkc9d"?>
<x:xmpmeta xmlns:x="adobe:ns:meta/" x:xmptk="Adobe XMP Core 5.6-c142 79.160924, 2017/07/13-01:06:39        ">
   <rdf:RDF xmlns:rdf="http://www.w3.org/1999/02/22-rdf-syntax-ns#">
      <rdf:Description rdf:about=""/>
   </rdf:RDF>
</x:xmpmeta>
                                                                                                    
                                                                                                    
                                                                                                    
                                                                                                    
                                                                                                    
                                                                                                    
                                                                                                    
                                                                                                    
                                                                                                    
                                                                                                    
                                                                                                    
                                                                                                    
                                                                                                    
                                                                                                    
                                                                                                    
                                                                                                    
                                                                                                    
                                                                                                    
                                                                                                    
                                                                                                    
                           
<?xpacket end="w"?></metadata>
<defs>
    <style>
      .cls-1 {
        stroke: #fff;
        stroke-linejoin: round;
        stroke-width: 5px;
        fill-rule: evenodd;
      }
    </style>
  </defs>
  <path id="Geethmaka_Dissanayake" data-name="Geethmaka Dissanayake" class="cls-1" d="M53.908,74.85a3.787,3.787,0,0,0-.081-0.732q-0.936-7.608-1.18-11.312-0.163-2.359-1.1-2.36a1.637,1.637,0,0,0-1.1.936,2.185,2.185,0,0,1-1.953,1.1,8.537,8.537,0,0,1-3.092-1.1,33.073,33.073,0,0,0-14.567-3.866,30.5,30.5,0,0,0-14.16,3.6A27.345,27.345,0,0,0,1.7,85.836a24.975,24.975,0,0,0,8.464,19.369,29.337,29.337,0,0,0,20.386,7.649,33.472,33.472,0,0,0,14.323-3.336q7.12-3.336,7.568-4.273t0.448-10.457a13.052,13.052,0,0,1,.366-3.7,3.758,3.758,0,0,1,1.953-1.953,10.9,10.9,0,0,1,4.11-1.1,0.934,0.934,0,0,0,1.058-.936,0.793,0.793,0,0,0-.936-0.855l-11.271.244-9.2.122-2.157-.081q-1.3,0-1.3.936,0,0.773,1.18.773l1.261-.041q3.906,0,5.676,2.116T45.4,99.1a16.178,16.178,0,0,1-.427,4.924,11.584,11.584,0,0,1-2.482,2.848,15.654,15.654,0,0,1-4.374,2.93,13.944,13.944,0,0,1-5.615,1.017,19.217,19.217,0,0,1-15.462-7.528,27.252,27.252,0,0,1-6.185-17.863A31.7,31.7,0,0,1,13.87,71.778,22.025,22.025,0,0,1,21.644,62.3a17.934,17.934,0,0,1,9.85-3.072,19.472,19.472,0,0,1,11.66,3.983,27.8,27.8,0,0,1,8.8,11.316q0.569,1.3,1.1,1.3a0.814,0.814,0,0,0,.855-0.977h0ZM92.192,92.672q2.853,0,3.118-.407A2.356,2.356,0,0,0,95.575,91a13.025,13.025,0,0,0-4.435-9.786,14.15,14.15,0,0,0-9.928-4.171q-5.859,0-11.007,5.33a18.4,18.4,0,0,0-5.147,13.306,17.029,17.029,0,0,0,4.681,12.309,15.267,15.267,0,0,0,11.438,4.862A17.77,17.77,0,0,0,89.52,110.9a12.138,12.138,0,0,0,5.292-4.8q-0.041-1.058-.693-1.058a4.21,4.21,0,0,0-1.55,1.1,13.138,13.138,0,0,1-9.094,3.906,10.643,10.643,0,0,1-8.421-3.988,14.519,14.519,0,0,1-3.405-9.765q0-1.221.163-3.3ZM75.585,81.381q2.916-2.909,5.853-2.909a7.286,7.286,0,0,1,5.526,2.543,8.512,8.512,0,0,1,2.345,5.961A3.425,3.425,0,0,1,88,90.048,7.161,7.161,0,0,1,84.252,91l-2.162.122q-4.976,0-10.277-.244Q72.669,84.29,75.585,81.381ZM127.8,92.672q2.853,0,3.118-.407A2.363,2.363,0,0,0,131.179,91a13.024,13.024,0,0,0-4.436-9.786,14.149,14.149,0,0,0-9.928-4.171q-5.859,0-11.007,5.33a18.4,18.4,0,0,0-5.147,13.306,17.027,17.027,0,0,0,4.681,12.309,15.266,15.266,0,0,0,11.438,4.862,17.771,17.771,0,0,0,8.344-1.953,12.139,12.139,0,0,0,5.292-4.8c-0.028-.7-0.258-1.058-0.693-1.058a4.209,4.209,0,0,0-1.55,1.1,13.139,13.139,0,0,1-9.094,3.906,10.644,10.644,0,0,1-8.421-3.988,14.52,14.52,0,0,1-3.405-9.765q0-1.221.163-3.3ZM111.188,81.381q2.917-2.909,5.853-2.909a7.285,7.285,0,0,1,5.526,2.543,8.513,8.513,0,0,1,2.345,5.961,3.425,3.425,0,0,1-1.305,3.072,7.161,7.161,0,0,1-3.752.956l-2.161.122q-4.977,0-10.278-.244Q108.273,84.29,111.188,81.381Zm48.514-1.2a3.372,3.372,0,0,0,.611-2.36q-0.082-.528-2.36-0.529l-8.911.122L149,71.087q0-2.068.122-3.649,0.041-.405.041-0.771,0-1.135-.751-1.136t-0.918,1.42a11.711,11.711,0,0,1-4.581,8.359,27.342,27.342,0,0,1-5.595,3.571,1.133,1.133,0,0,0-1.013.853q0,0.568.895,0.608l2.441,0.163q3.581,0.2,3.866.285-0.732,14.545-.733,20.534,0,5.745,2.081,8.637a7.186,7.186,0,0,0,6.243,2.892,11.715,11.715,0,0,0,7.1-2.115q2.9-2.117,2.9-3.093a0.487,0.487,0,0,0-.529-0.57,3.968,3.968,0,0,0-1.143.57,9.4,9.4,0,0,1-4.781,1.587,5.47,5.47,0,0,1-4.578-2.037q-1.593-2.037-1.593-8.72,0-8.679.57-17.685,8.544-.61,10.66-0.61h0Zm15.788-3.49,0.122-20.232q-4.6.285-8.585,0.285-2.361,0-2.625.061a0.342,0.342,0,0,0-.264.386q0,0.57,1.139.814a4.861,4.861,0,0,1,3.174,2.582q1.3,2.216,1.444,7.156t0.143,20.838q0,8.9-.489,14.616t-1.18,6.567a3.951,3.951,0,0,1-2.644,1.1q-0.976.121-.977,0.691,0,0.652,1.221.651,1.953-.121,4.6-0.122l8.219,0.163q0.977,0,.977-0.651c0-.379-0.34-0.624-1.018-0.732q-2.483-.489-3.011-2.035a25.391,25.391,0,0,1-.529-6.592q0-7.446.489-12.614t3.153-7.833a8.465,8.465,0,0,1,6.165-2.665,6.692,6.692,0,0,1,5.757,3.153q2.176,3.154,2.177,14.058,0,10.132-.529,12.024T189,110.617q-0.936.121-.936,0.691a0.727,0.727,0,0,0,.692.692H200.8q1.791,0,1.791-.732,0-.489-1.1-0.489a3.569,3.569,0,0,1-2.055-.854,2.8,2.8,0,0,1-1.159-1.913q-0.123-1.1-.122-6.266L198.4,90.963q0-7.812-2.869-10.864t-8.24-3.052q-6.754,0-11.678,6.083-0.121-2.58-.122-6.44h0ZM217.4,76.966q-2.6,0-6,.346a20.965,20.965,0,0,0-3.682.525,0.666,0.666,0,0,0-.285.614q0,0.674,1.058.713a5.432,5.432,0,0,1,3.743,1.1,4.087,4.087,0,0,1,1.2,2.818q0.1,1.757.1,10.09t-0.366,12.031q-0.366,3.7-1.159,4.452a4.661,4.661,0,0,1-2.991.837,0.71,0.71,0,0,0-.814.733q0,0.774,2.238.773h12.614q1.587,0,1.587-.651a0.7,0.7,0,0,0-.224-0.651,3.565,3.565,0,0,0-1.241-.122q-2.564,0-3.214-1.485t-0.652-8.159q0-9.439.936-13.183a10.761,10.761,0,0,1,3.642-5.941,8.659,8.659,0,0,1,5.473-2.2,5.428,5.428,0,0,1,4.9,2.726q1.688,2.727,1.689,11.393,0,4.8-.3,9.725t-1.18,5.961q-0.876,1.038-3.357,1.038c-0.788,0-1.18.258-1.18,0.773s0.691,0.773,2.075.773h13.712q1.627,0,1.628-.732,0-.691-1.3-0.692h-0.692q-2.564,0-3.316-1.242t-0.753-5.969q0-13.444,1.628-18.781a15.766,15.766,0,0,1,4.109-4.106,7.976,7.976,0,0,1,4.354-1.356,5.861,5.861,0,0,1,4.313,1.75,8.1,8.1,0,0,1,2.218,4.5,60.021,60.021,0,0,1,.468,8.972q0,13.306-.814,14.668t-4.15,1.526q-1.059.083-1.058,0.733,0,0.732,1.831.732h12.492q2.236,0,2.238-.773,0-.732-1.384-0.733a2.865,2.865,0,0,1-2.746-1.2,10.425,10.425,0,0,1-.672-4.549l0.2-15.337a26.619,26.619,0,0,0-.651-7.2,7.15,7.15,0,0,0-3.276-3.61,12.243,12.243,0,0,0-6.571-1.631,13.738,13.738,0,0,0-5.921,1.4,21.754,21.754,0,0,0-5.839,4.226,14.387,14.387,0,0,0-4.516-4.155,10.848,10.848,0,0,0-5.371-1.385,13.06,13.06,0,0,0-6.267,1.67,22.984,22.984,0,0,0-6.1,5.051q0.081-1.966.122-3.892a9.661,9.661,0,0,0-.488-2.868q-1.385-.042-2.035-0.043h0Zm77.779,34.322q0.793,1.077,3.113,1.078,8.016,0,8.016-1.558,0-.68-0.936-0.68l-0.692.082a7.463,7.463,0,0,1-1.139.122q-2.035,0-2.787-2.628A36.075,36.075,0,0,1,300,98.843l0.244-10.756q0-4.889-.712-6.6a6.583,6.583,0,0,0-3.5-3.035,17.609,17.609,0,0,0-7.467-1.324q-5.9,0-9.277,2.258t-3.378,5.31a3.4,3.4,0,0,0,3.052,3.54q2.481,0,3.215-3.759,0.692-3.432,1.993-4.618a5.7,5.7,0,0,1,3.866-1.144,5.991,5.991,0,0,1,4.842,2.021,8.495,8.495,0,0,1,1.709,5.654,5.283,5.283,0,0,1-1.3,3.71q-1.3,1.425-7.812,3.581a42.252,42.252,0,0,0-6.368,2.565,9.073,9.073,0,0,0-3.215,3.338,9.5,9.5,0,0,0-1.4,5.006,7.564,7.564,0,0,0,2.34,5.781,9.046,9.046,0,0,0,6.449,2.2,12.708,12.708,0,0,0,11.027-5.778Q294.386,110.209,295.18,111.288Zm-0.59-13.041a17,17,0,0,1-1,6.632,8.772,8.772,0,0,1-3.072,3.683,7.621,7.621,0,0,1-4.435,1.444,4.8,4.8,0,0,1-3.805-1.79,6.486,6.486,0,0,1-1.525-4.354,6.961,6.961,0,0,1,1.871-4.883,23.05,23.05,0,0,1,6.144-4.191q4.313-2.278,5.534-3.866,0.285,4.028.285,7.324h0ZM315.668,57.19q-1.751.244-3.3,0.366-3.378.2-3.378,0.9,0,0.57,1.025.732a4.739,4.739,0,0,1,3.831,2.38q0.963,1.933.963,6.775l0.407,28.686,0.041,6.307a12.061,12.061,0,0,1-.631,4.761,4.789,4.789,0,0,1-1.18,1.668,7.1,7.1,0,0,1-2.624.732,0.916,0.916,0,0,0-.977.814q0,0.693,2.162.692H323.84q2.61,0,2.611-.651c0-.488-0.425-0.746-1.271-0.773a3.7,3.7,0,0,1-3.341-1.938q-0.963-1.816-.963-9.568,0-1.02.041-2.285,4.5-3.218,4.7-3.421,6.372,2.039,7.793,11.826a24.184,24.184,0,0,0,.874,4.159A6.428,6.428,0,0,0,336.257,112H346.1q2.034,0,2.034-.753,0-.674-1.22-0.753-3.744-.121-5.127-1.347a8.284,8.284,0,0,1-2.116-4.371q-3-12.907-8.85-15.725,0.811-.772,3.616-3.743a23.554,23.554,0,0,1,5.018-4.324,15,15,0,0,1,4.856-1.617,0.873,0.873,0,0,0,.934-0.732q0-.732-1.623-0.732-1.582.082-3.531,0.081l-6.209-.041a26.468,26.468,0,0,0-3.592.119,0.552,0.552,0,0,0-.426.594q0,0.634,1.573.792,2.985,0.285,2.985,1.872,0,1.547-3.327,5.189a60.822,60.822,0,0,1-10.182,8.364l-0.041-16.138-0.2-15.61,0.122-4.349q0-.65-0.122-2.2-1.629.082-5,.61h0Zm57.637,54.1q0.793,1.077,3.113,1.078,8.016,0,8.016-1.558,0-.68-0.936-0.68l-0.692.082a7.463,7.463,0,0,1-1.139.122q-2.035,0-2.787-2.628a36.075,36.075,0,0,1-.753-8.861l0.244-10.756q0-4.889-.712-6.6a6.583,6.583,0,0,0-3.5-3.035,17.609,17.609,0,0,0-7.467-1.324q-5.9,0-9.277,2.258t-3.378,5.31a3.4,3.4,0,0,0,3.052,3.54q2.483,0,3.215-3.759Q361,81.045,362.3,79.86a5.7,5.7,0,0,1,3.865-1.144,5.991,5.991,0,0,1,4.842,2.021,8.495,8.495,0,0,1,1.709,5.654,5.283,5.283,0,0,1-1.3,3.71q-1.3,1.425-7.812,3.581a42.252,42.252,0,0,0-6.368,2.565,9.073,9.073,0,0,0-3.215,3.338,9.5,9.5,0,0,0-1.4,5.006,7.564,7.564,0,0,0,2.34,5.781,9.046,9.046,0,0,0,6.449,2.2,12.708,12.708,0,0,0,11.027-5.778Q372.511,110.209,373.305,111.288Zm-0.59-13.041a17,17,0,0,1-1,6.632,8.772,8.772,0,0,1-3.072,3.683,7.621,7.621,0,0,1-4.435,1.444,4.8,4.8,0,0,1-3.805-1.79,6.486,6.486,0,0,1-1.525-4.354,6.961,6.961,0,0,1,1.871-4.883,23.041,23.041,0,0,1,6.145-4.191q4.313-2.278,5.533-3.866,0.285,4.028.285,7.324h0Zm43.4-39.815q-4.172-.345-4.984-0.346a0.755,0.755,0,0,0-.855.855q0,0.692,1.709.936a6.485,6.485,0,0,1,3.438,1.364q1.078,1,1.587,4.48a49.983,49.983,0,0,1,.509,7.228l-0.651,21.542q-0.327,11.281-1.648,13.439a5.955,5.955,0,0,1-4.578,2.606,25.744,25.744,0,0,0-3.011.476,0.624,0.624,0,0,0-.488.634q0,0.681,1.343.681,2.359-.286,15.706-0.285,0.732,0,6.755.488,3.377,0.244,5.574.244,9.767,0,15.625-3.133a26.093,26.093,0,0,0,9.766-9.3,26.521,26.521,0,0,0,3.906-14.506,25.746,25.746,0,0,0-8.138-19.491q-8.139-7.731-24.048-7.731l-8.382.163Q420.281,58.777,416.111,58.432Zm7.955,30.66,0.366-11.19q0.123-3.336.529-9.277,0.285-4.068.285-5.656,0-1.79.916-2.157t6.449-.366q12.452,0,18.351,7.853a28.494,28.494,0,0,1,5.9,17.537,30.128,30.128,0,0,1-2.584,12.37,23.343,23.343,0,0,1-7.181,9.318q-4.6,3.5-12,3.5-5.167,0-7.507-1.485a6.854,6.854,0,0,1-3.052-3.784,28.867,28.867,0,0,1-.712-7.67q0-1.139.244-8.993h0Zm52.348-30.884a3.729,3.729,0,0,0-1.038,2.726A3.308,3.308,0,0,0,476.6,63.64a4.255,4.255,0,0,0,2.767,1,3.462,3.462,0,0,0,2.747-1.139,4,4,0,0,0,1-2.726,3.362,3.362,0,0,0-1.22-2.482,3.951,3.951,0,0,0-2.767-1.139A3.622,3.622,0,0,0,476.414,58.208Zm0.956,19.206a29.135,29.135,0,0,0-4.842.529,0.638,0.638,0,0,0-.326.57q0,0.651.977,0.651,2.93,0.082,3.947,1.322t1.017,8l-0.285,16.846q0,3.336-.626,4.048a4.841,4.841,0,0,1-2.889,1q-2.264.285-2.263,1.018t0.977,0.732a4.169,4.169,0,0,0,.814-0.081,52.572,52.572,0,0,1,7.2-.326,55.309,55.309,0,0,1,7.039.488q0.406,0.041.733,0.041,0.853,0,.854-0.651,0-.813-2.238-0.936a4.737,4.737,0,0,1-2.868-.875q-0.957-.793-0.957-3.723l0.041-4.883V94.747L483.6,86.2l0.04-9.155Q481.887,77.088,477.37,77.413Zm41.748,20.009a8.527,8.527,0,0,0-2.319-2.9,33.564,33.564,0,0,0-5.778-3.066,71.441,71.441,0,0,1-7.752-3.761,8.563,8.563,0,0,1-1.444-1.706,4.6,4.6,0,0,1,1.1-6.255,7.723,7.723,0,0,1,4.8-1.422,9.4,9.4,0,0,1,3.8.851,8.232,8.232,0,0,1,3.561,3.931,29.583,29.583,0,0,1,1.953,4.174q0.366,1.176.976,1.175,0.692,0,.692-1.307,0-2.124-.244-5.412a17.243,17.243,0,0,0-.442-3.595,0.627,0.627,0,0,0-.555-0.306,1.3,1.3,0,0,0-.753.63,1.294,1.294,0,0,1-.9.672,2.625,2.625,0,0,1-1.141-.326,16.118,16.118,0,0,0-7.339-2.075,11.183,11.183,0,0,0-7.706,2.831,9.031,9.031,0,0,0-3.18,7.027,8.425,8.425,0,0,0,1.014,4.073,7.778,7.778,0,0,0,2.8,2.974,73.028,73.028,0,0,0,7.106,3.48q7.754,3.459,7.754,7.935a5.558,5.558,0,0,1-2.106,4.578,7.49,7.49,0,0,1-4.82,1.688,8.692,8.692,0,0,1-6.7-3.235,22.883,22.883,0,0,1-4.435-7.873,0.873,0.873,0,0,0-.711-0.773q-0.8,0-.794,1.505,0.081,1.019.122,4.558,0.041,4.11.166,5.269t0.623,1.16a1.817,1.817,0,0,0,1.245-1.14,1.479,1.479,0,0,1,1.219-.854,11.3,11.3,0,0,1,2.558.976,16.643,16.643,0,0,0,6.783,1.831,11.491,11.491,0,0,0,8.286-3.39,10.9,10.9,0,0,0,3.493-8.1A8.268,8.268,0,0,0,519.118,97.422Zm33,0a8.541,8.541,0,0,0-2.32-2.9,33.542,33.542,0,0,0-5.777-3.066,71.329,71.329,0,0,1-7.752-3.761,8.53,8.53,0,0,1-1.444-1.706,4.6,4.6,0,0,1,1.1-6.255,7.721,7.721,0,0,1,4.8-1.422,9.4,9.4,0,0,1,3.8.851,8.236,8.236,0,0,1,3.56,3.931,29.629,29.629,0,0,1,1.954,4.174q0.366,1.176.976,1.175,0.692,0,.692-1.307,0-2.124-.244-5.412a17.2,17.2,0,0,0-.443-3.595,0.624,0.624,0,0,0-.554-0.306,1.3,1.3,0,0,0-.753.63,1.3,1.3,0,0,1-.9.672,2.625,2.625,0,0,1-1.141-.326,16.121,16.121,0,0,0-7.34-2.075,11.181,11.181,0,0,0-7.705,2.831,9.028,9.028,0,0,0-3.181,7.027,8.425,8.425,0,0,0,1.015,4.073,7.778,7.778,0,0,0,2.8,2.974,73.028,73.028,0,0,0,7.106,3.48q7.754,3.459,7.754,7.935a5.558,5.558,0,0,1-2.106,4.578,7.493,7.493,0,0,1-4.821,1.688,8.69,8.69,0,0,1-6.7-3.235,22.867,22.867,0,0,1-4.435-7.873,0.874,0.874,0,0,0-.711-0.773q-0.795,0-.795,1.505,0.081,1.019.122,4.558,0.042,4.11.166,5.269t0.623,1.16a1.816,1.816,0,0,0,1.246-1.14,1.478,1.478,0,0,1,1.219-.854,11.322,11.322,0,0,1,2.558.976,16.636,16.636,0,0,0,6.783,1.831,11.491,11.491,0,0,0,8.286-3.39,10.9,10.9,0,0,0,3.493-8.1A8.268,8.268,0,0,0,552.118,97.422Zm29.52,13.866q0.793,1.077,3.113,1.078,8.016,0,8.016-1.558,0-.68-0.936-0.68l-0.691.082a7.486,7.486,0,0,1-1.14.122q-2.034,0-2.787-2.628a36.126,36.126,0,0,1-.753-8.861L586.7,88.088q0-4.889-.712-6.6a6.579,6.579,0,0,0-3.5-3.035,17.6,17.6,0,0,0-7.467-1.324q-5.9,0-9.277,2.258t-3.377,5.31a3.4,3.4,0,0,0,3.052,3.54q2.481,0,3.214-3.759,0.692-3.432,1.994-4.618a5.7,5.7,0,0,1,3.865-1.144,5.994,5.994,0,0,1,4.843,2.021,8.5,8.5,0,0,1,1.709,5.654,5.284,5.284,0,0,1-1.3,3.71q-1.3,1.425-7.812,3.581a42.344,42.344,0,0,0-6.368,2.565,9.081,9.081,0,0,0-3.215,3.338,9.508,9.508,0,0,0-1.4,5.006,7.564,7.564,0,0,0,2.339,5.781,9.047,9.047,0,0,0,6.45,2.2,12.711,12.711,0,0,0,11.027-5.778Q580.845,110.209,581.638,111.288Zm-0.589-13.041a17.019,17.019,0,0,1-1,6.632,8.774,8.774,0,0,1-3.073,3.683,7.621,7.621,0,0,1-4.435,1.444,4.8,4.8,0,0,1-3.8-1.79,6.482,6.482,0,0,1-1.526-4.354,6.962,6.962,0,0,1,1.872-4.883,23.033,23.033,0,0,1,6.144-4.191q4.313-2.278,5.534-3.866,0.283,4.028.285,7.324h0Zm19.978-20.955-3.3-.041q-1.219,0-1.22.692,0,0.651,1.587,1.017a4.133,4.133,0,0,1,2.726,2.16q0.977,1.752.976,8.963,0,7.741-.222,12.915t-0.869,6.091a3.85,3.85,0,0,1-2.5,1.283q-1.94.368-1.939,1.058,0,0.652,1.785.651L601.3,112q6.371,0,7.508.081l2.111,0.163q0.893,0,.892-0.57a0.794,0.794,0,0,0-.895-0.773q-2.849-.324-3.56-1.81t-0.712-6.938q0-12,3.153-17.151t7.914-5.147a6.51,6.51,0,0,1,5.371,2.844q2.157,2.845,2.157,11.419,0,3.13-.183,8.128a35.675,35.675,0,0,1-.468,5.871,2.812,2.812,0,0,1-.977,1.4,8.42,8.42,0,0,1-2.929,1.016,0.785,0.785,0,0,0-.814.651q0,0.693,1.5.692,3.785-.285,7.08-0.285a30.715,30.715,0,0,1,5.534.37,4.364,4.364,0,0,0,.57.037,0.578,0.578,0,0,0,.692-0.61q0-.489-1.424-0.9a4.6,4.6,0,0,1-2.706-1.524q-0.632-.954-0.631-4.734l0.244-13.7q0-6.1-1.4-8.636a7.762,7.762,0,0,0-3.987-3.576,14.259,14.259,0,0,0-5.351-1.036,12.057,12.057,0,0,0-6.694,1.994,19.155,19.155,0,0,0-5.594,5.981q-0.206-5.7-1.18-8.1-4.965.122-5.494,0.122h0Zm61.341,34q0.793,1.077,3.112,1.078,8.016,0,8.016-1.558,0-.68-0.936-0.68l-0.691.082a7.486,7.486,0,0,1-1.14.122q-2.034,0-2.787-2.628a36.126,36.126,0,0,1-.753-8.861l0.245-10.756q0-4.889-.713-6.6a6.575,6.575,0,0,0-3.5-3.035,17.6,17.6,0,0,0-7.467-1.324q-5.9,0-9.277,2.258T643.1,84.7a3.4,3.4,0,0,0,3.052,3.54q2.481,0,3.214-3.759,0.692-3.432,1.994-4.618a5.7,5.7,0,0,1,3.866-1.144,5.994,5.994,0,0,1,4.842,2.021,8.5,8.5,0,0,1,1.709,5.654,5.288,5.288,0,0,1-1.3,3.71q-1.3,1.425-7.813,3.581a42.344,42.344,0,0,0-6.368,2.565,9.071,9.071,0,0,0-3.214,3.338,9.5,9.5,0,0,0-1.4,5.006,7.564,7.564,0,0,0,2.339,5.781,9.048,9.048,0,0,0,6.45,2.2,12.711,12.711,0,0,0,11.027-5.778Q661.574,110.209,662.368,111.288Zm-0.59-13.041a17.019,17.019,0,0,1-1,6.632,8.779,8.779,0,0,1-3.072,3.683,7.627,7.627,0,0,1-4.436,1.444,4.8,4.8,0,0,1-3.8-1.79,6.487,6.487,0,0,1-1.526-4.354,6.962,6.962,0,0,1,1.872-4.883,23.033,23.033,0,0,1,6.144-4.191q4.313-2.278,5.534-3.866,0.283,4.028.285,7.324h0Zm25.105-15.954q0-2.235,3.215-3.089,1.79-.447,1.79-1.1,0-.772-1.017-0.773a8.31,8.31,0,0,0-1.18.148,66.662,66.662,0,0,1-7.935.259,41.092,41.092,0,0,1-5.411-.317,5.689,5.689,0,0,0-.936-0.09,0.8,0.8,0,0,0-.977.808q0,0.681,1.343.851a4.5,4.5,0,0,1,2.706,1.616q1.24,1.4,4.659,9.391t6.205,14.858q2.787,6.871,2.787,9.595,0,3.456-3.6,9.6t-6.53,6.14q-1.832,0-1.994-2.237a3.247,3.247,0,0,0-3.622-3.337,3.7,3.7,0,0,0-2.543,1.18,3.655,3.655,0,0,0-1.241,2.726,5.317,5.317,0,0,0,1.852,3.744,6.835,6.835,0,0,0,5.025,1.831,10.441,10.441,0,0,0,6.286-2.42q3.2-2.421,6.145-8.745t7.792-20.6q4.963-14.593,6.856-18.6T711.7,79a1.092,1.092,0,0,0,1.1-.877q0-.71-1.017-0.71c-0.218,0-.6.027-1.14,0.081q-1.83.163-7.242,0.163-1.832,0-2.564-.041-1.872-.122-2.2-0.122-0.936,0-.936.669,0,0.711,1.18.837,4.232,0.366,4.232,3.74a26.263,26.263,0,0,1-1.262,6.931q-1.262,4.33-5.7,16.363-9.277-21.831-9.278-23.742h0Zm49.785,28.995q0.793,1.077,3.113,1.078,8.015,0,8.016-1.558c0-.453-0.313-0.68-0.936-0.68l-0.692.082a7.476,7.476,0,0,1-1.139.122q-2.035,0-2.788-2.628a36.138,36.138,0,0,1-.752-8.861l0.244-10.756q0-4.889-.712-6.6a6.581,6.581,0,0,0-3.5-3.035,17.6,17.6,0,0,0-7.466-1.324q-5.9,0-9.278,2.258T717.4,84.7a3.4,3.4,0,0,0,3.052,3.54q2.481,0,3.214-3.759,0.692-3.432,1.994-4.618a5.7,5.7,0,0,1,3.866-1.144,5.994,5.994,0,0,1,4.842,2.021,8.5,8.5,0,0,1,1.709,5.654,5.283,5.283,0,0,1-1.3,3.71q-1.3,1.425-7.813,3.581a42.344,42.344,0,0,0-6.368,2.565,9.079,9.079,0,0,0-3.214,3.338,9.5,9.5,0,0,0-1.4,5.006,7.561,7.561,0,0,0,2.34,5.781,9.044,9.044,0,0,0,6.449,2.2,12.711,12.711,0,0,0,11.027-5.778Q735.874,110.209,736.668,111.288Zm-0.59-13.041a17.019,17.019,0,0,1-1,6.632,8.779,8.779,0,0,1-3.072,3.683,7.626,7.626,0,0,1-4.435,1.444,4.8,4.8,0,0,1-3.8-1.79,6.487,6.487,0,0,1-1.526-4.354,6.962,6.962,0,0,1,1.872-4.883,23.033,23.033,0,0,1,6.144-4.191q4.313-2.278,5.534-3.866,0.283,4.028.285,7.324h0ZM757.155,57.19q-1.749.244-3.3,0.366-3.378.2-3.377,0.9,0,0.57,1.024.732a4.737,4.737,0,0,1,3.831,2.38q0.965,1.933.964,6.775l0.407,28.686,0.04,6.307a12.066,12.066,0,0,1-.63,4.761,4.789,4.789,0,0,1-1.18,1.668,7.1,7.1,0,0,1-2.625.732,0.917,0.917,0,0,0-.977.814q0,0.693,2.162.692h11.83q2.61,0,2.61-.651,0-.732-1.271-0.773a3.693,3.693,0,0,1-3.34-1.938q-0.963-1.816-.963-9.568,0-1.02.04-2.285,4.5-3.218,4.7-3.421,6.372,2.039,7.792,11.826a24.262,24.262,0,0,0,.875,4.159A6.416,6.416,0,0,0,777.744,112h9.847q2.035,0,2.035-.753,0-.674-1.221-0.753-3.744-.121-5.127-1.347a8.3,8.3,0,0,1-2.116-4.371q-3-12.907-8.85-15.725,0.813-.772,3.617-3.743a23.554,23.554,0,0,1,5.017-4.324,15.021,15.021,0,0,1,4.856-1.617,0.874,0.874,0,0,0,.935-0.732q0-.732-1.623-0.732-1.584.082-3.531,0.081l-6.209-.041a26.468,26.468,0,0,0-3.592.119,0.552,0.552,0,0,0-.426.594q0,0.634,1.573.792,2.984,0.285,2.984,1.872,0,1.547-3.326,5.189A60.836,60.836,0,0,1,762.4,94.873l-0.04-16.138-0.2-15.61,0.122-4.349q0-.65-0.122-2.2-1.627.082-5,.61h0Zm59.768,35.482q2.855,0,3.118-.407A2.353,2.353,0,0,0,820.306,91a13.026,13.026,0,0,0-4.435-9.786,14.149,14.149,0,0,0-9.928-4.171q-5.861,0-11.007,5.33a18.4,18.4,0,0,0-5.147,13.306,17.031,17.031,0,0,0,4.68,12.309,15.27,15.27,0,0,0,11.439,4.862,17.774,17.774,0,0,0,8.344-1.953,12.136,12.136,0,0,0,5.291-4.8q-0.041-1.058-.693-1.058a4.209,4.209,0,0,0-1.55,1.1,13.137,13.137,0,0,1-9.093,3.906,10.641,10.641,0,0,1-8.421-3.988,14.516,14.516,0,0,1-3.406-9.765q0-1.221.164-3.3ZM800.316,81.381q2.916-2.909,5.853-2.909a7.288,7.288,0,0,1,5.526,2.543,8.513,8.513,0,0,1,2.345,5.961,3.427,3.427,0,0,1-1.3,3.072,7.164,7.164,0,0,1-3.752.956l-2.162.122q-4.976,0-10.277-.244Q797.4,84.29,800.316,81.381Z" transform="translate(0 -51.5)"/>
</svg>
